<?xml version="1.0" encoding="UTF-8"?>
<!DOCTYPE svg PUBLIC "-//W3C//DTD SVG 1.1//EN" "http://www.w3.org/Graphics/SVG/1.1/DTD/svg11.dtd">
<svg version="1.1" xmlns="http://www.w3.org/2000/svg" xmlns:xlink="http://www.w3.org/1999/xlink" x="0" y="0" width="553.924" height="436.136" viewBox="0, 0, 553.924, 436.136">
  <defs>
    <linearGradient id="Gradient_1" gradientUnits="userSpaceOnUse" x1="456.524" y1="153.603" x2="492.71" y2="153.603">
      <stop offset="0" stop-color="#917E70"/>
      <stop offset="1" stop-color="#725D50"/>
    </linearGradient>
    <linearGradient id="Gradient_2" gradientUnits="userSpaceOnUse" x1="563.523" y1="140.825" x2="594.704" y2="140.825">
      <stop offset="0" stop-color="#917E70"/>
      <stop offset="1" stop-color="#725D50"/>
    </linearGradient>
    <linearGradient id="Gradient_3" gradientUnits="userSpaceOnUse" x1="565.491" y1="122.697" x2="588.761" y2="122.697">
      <stop offset="0" stop-color="#917E70"/>
      <stop offset="1" stop-color="#725D50"/>
    </linearGradient>
    <linearGradient id="Gradient_4" gradientUnits="userSpaceOnUse" x1="562.796" y1="116.637" x2="579.757" y2="116.637">
      <stop offset="0" stop-color="#917E70"/>
      <stop offset="1" stop-color="#725D50"/>
    </linearGradient>
    <linearGradient id="Gradient_5" gradientUnits="userSpaceOnUse" x1="479.168" y1="154.455" x2="581.146" y2="154.455">
      <stop offset="0" stop-color="#917E70"/>
      <stop offset="1" stop-color="#725D50"/>
    </linearGradient>
    <linearGradient id="Gradient_6" gradientUnits="userSpaceOnUse" x1="318.091" y1="133.356" x2="340.637" y2="133.356">
      <stop offset="0" stop-color="#F7CEB9"/>
      <stop offset="0.614" stop-color="#F7CEB9"/>
      <stop offset="1" stop-color="#EFA489"/>
    </linearGradient>
    <linearGradient id="Gradient_7" gradientUnits="userSpaceOnUse" x1="313.898" y1="123.22" x2="325.918" y2="123.22">
      <stop offset="0" stop-color="#F7CEB9"/>
      <stop offset="0.614" stop-color="#F7CEB9"/>
      <stop offset="1" stop-color="#EFA489"/>
    </linearGradient>
    <linearGradient id="Gradient_8" gradientUnits="userSpaceOnUse" x1="503.343" y1="244.716" x2="516.987" y2="214.699">
      <stop offset="0" stop-color="#F7CEB9"/>
      <stop offset="0.614" stop-color="#F7CEB9"/>
      <stop offset="1" stop-color="#EFA489"/>
    </linearGradient>
    <linearGradient id="Gradient_9" gradientUnits="userSpaceOnUse" x1="367.294" y1="231.508" x2="380.752" y2="203.844">
      <stop offset="0" stop-color="#F7CEB9"/>
      <stop offset="0.614" stop-color="#F7CEB9"/>
      <stop offset="1" stop-color="#EFA489"/>
    </linearGradient>
    <linearGradient id="Gradient_10" gradientUnits="userSpaceOnUse" x1="536.041" y1="183.199" x2="551.594" y2="195.296">
      <stop offset="0" stop-color="#F7CEB9"/>
      <stop offset="0.614" stop-color="#F7CEB9"/>
      <stop offset="1" stop-color="#EFA489"/>
    </linearGradient>
    <linearGradient id="Gradient_11" gradientUnits="userSpaceOnUse" x1="515.423" y1="189.431" x2="551.613" y2="189.431">
      <stop offset="0" stop-color="#917E70"/>
      <stop offset="1" stop-color="#725D50"/>
    </linearGradient>
    <radialGradient id="Gradient_12" gradientUnits="userSpaceOnUse" cx="511.341" cy="185.956" r="13.929">
      <stop offset="0" stop-color="#ECA8C1"/>
      <stop offset="1" stop-color="#F7CEB9"/>
    </radialGradient>
    <linearGradient id="Gradient_13" gradientUnits="userSpaceOnUse" x1="510.138" y1="142.696" x2="569.572" y2="142.696">
      <stop offset="0" stop-color="#917E70"/>
      <stop offset="1" stop-color="#725D50"/>
    </linearGradient>
  </defs>
  <g id="Layer_1">
    <path d="M353.439,329.347 C353.439,329.347 268.911,194.731 250.768,189.389 C232.622,184.046 227.007,189.662 220.095,196.576 C213.183,203.487 133.137,350.868 127.52,354.325 C121.904,357.782 95.121,366.423 80,363.398 C64.881,360.374 59.697,359.077 58.833,362.101 C57.968,365.124 63.583,372.47 67.904,370.743 C72.223,369.013 70.063,378.517 79.569,379.382 C89.071,380.247 114.129,377.224 123.2,382.405 C132.271,387.589 154.736,397.093 155.6,382.405 C156.464,367.716 149.552,359.509 154.736,350.437 C159.92,341.364 195.471,298.389 214.048,276.356 C232.622,254.323 239.103,234.452 239.103,227.107 C239.103,227.107 316.972,368.452 326.368,378.308 C326.368,378.308 351.423,403.364 375.615,387.812 C399.81,372.261 353.439,329.347 353.439,329.347" fill="#F3B9A0" id="path1116"/>
    <path d="M445.883,115.665 C445.883,115.665 435.184,140.294 415.744,145.699 C415.744,145.699 441.564,146.974 451.93,118.538 z" fill="url(#Gradient_1)" id="path1118"/>
    <path d="M524.223,121.89 C524.223,121.89 516.064,101.228 538.072,101.095 C560.079,100.964 556.44,134.855 543.678,134.623 C535.241,134.469 528.542,137.2 524.223,121.89 z" fill="url(#Gradient_2)" id="path1120"/>
    <path d="M528.111,110.551 C528.111,110.551 512.558,87.103 547.982,85.394 C547.982,85.394 519.708,101.883 538.165,114.167 z" fill="url(#Gradient_3)" id="path1122"/>
    <path d="M525.151,104.827 C525.151,104.827 512.19,82.771 538.977,77.974 C538.977,77.974 518.146,91.754 528.559,109.466 z" fill="url(#Gradient_4)" id="path1124"/>
    <path d="M439.118,119.932 C439.118,119.932 430.048,89.41 475.838,81.059 C503.446,76.022 512.122,86.362 522.017,93.91 C533.087,102.358 570.362,178.245 490.311,183.349 C490.311,183.349 463.557,172.748 452.079,154.423 C440.415,135.799 439.118,119.932 439.118,119.932 z" fill="url(#Gradient_5)" id="path1126"/>
    <path d="M286.736,123.101 C286.736,123.101 350.863,149.974 362.424,158.234 C373.986,166.494 488.075,205.62 467.117,221.863 C446.159,238.109 437.642,230.837 424.681,220.892 C411.723,210.944 365.949,180.461 358.958,176.761 C351.962,173.064 291.837,138.627 281.583,131.441 C278.138,129.029 266.424,110.914 269.63,105.641 C272.837,100.368 274.398,94.345 278.002,96.789 C281.607,99.231 286.736,123.101 286.736,123.101" fill="#F3B9A0" id="path1128"/>
    <path d="M272.626,94.478 C272.626,94.478 287.558,105.361 293.935,107.058 C300.308,108.758 294.482,114.089 288.584,111.54 C282.69,108.99 269.314,96.974 269.314,96.974" fill="#F3B9A0" id="path1130"/>
    <path d="M277.311,120.402 C277.311,120.402 285.022,96.486 294.706,94.321 C304.388,92.156 297.954,99.134 295.205,102.084 C292.458,105.031 281.558,116.154 279.658,126.966 z" fill="url(#Gradient_6)" id="path1132"/>
    <path d="M275.497,94.478 C275.497,94.478 284.675,111.998 289.498,116.499 C294.322,121 285.542,121.246 281.544,116.22 C277.545,111.193 271.989,98.303 271.989,98.303" fill="#F3B9A0" id="path1134"/>
    <path d="M273.118,110.112 C273.118,110.112 276.655,81.814 283.408,81.493 C290.159,81.171 274.726,104.645 278.263,119.116 z" fill="url(#Gradient_7)" id="path1136"/>
    <path d="M270.32,91.119 C270.32,91.119 282.566,91.462 279.13,96.928 C275.692,102.395 268.466,101.437 266.044,95.321 C263.621,89.204 270.32,91.119 270.32,91.119" fill="#F3B9A0" id="path1138"/>
    <path d="M268.128,138.501 C268.128,138.501 247.393,152.557 247.072,151.593 C246.751,150.629 244.454,148.301 248.958,143.478 C253.458,138.653 263.394,134.873 263.394,134.873 C263.394,134.873 267.697,123.734 271.989,122.769 C276.28,121.805 275.361,136.341 268.128,138.501" fill="#F3B9A0" id="path1140"/>
    <path d="M454.013,185.129 C454.013,185.129 461.099,194.695 450.472,204.258 C439.845,213.823 488.029,234.802 483.308,230.447 C471.505,219.55 496.876,168.915 496.876,168.915 C496.876,168.915 458.267,183.359 454.013,185.129 z" fill="url(#Gradient_8)" id="path1142"/>
    <path d="M488.225,229.701 C488.49,267.768 455.886,281.177 425.108,349.219 C392.275,421.794 349.831,395.4 329.357,373.925 C319.958,364.071 251.199,230.564 251.199,230.564 C251.199,237.907 245.583,256.915 227.007,278.947 C208.431,300.981 172.88,343.958 167.697,353.028 C162.511,362.101 169.423,370.31 168.559,384.997 C167.697,399.685 145.232,390.181 136.16,384.997 C127.089,379.814 102.032,382.837 92.528,381.974 C83.023,381.108 85.183,371.605 80.864,373.335 C76.544,375.062 70.928,367.716 71.792,364.692 C72.657,361.669 77.841,362.966 92.96,365.989 C108.081,369.013 134.864,360.374 140.48,356.917 C146.097,353.461 226.142,206.078 233.054,199.167 C239.968,192.254 245.583,186.638 263.727,191.98 C281.872,197.323 366.4,331.939 366.4,331.939 L396.353,274.914 C396.353,274.914 381.76,253.845 396.638,246.403 C411.517,238.964 432.444,210.414 432.444,210.414 C438.09,206.944 455.035,204.98 466.274,212.333 C477.509,219.685 488.178,223.224 488.225,229.701 z" fill="url(#Gradient_9)" id="path1144"/>
    <path d="M462.591,207.524 C462.373,207.443 390.263,183.246 376.696,178.724 C362.872,174.115 296.305,147.621 291.608,140.708 C286.911,133.795 278.267,117.134 276.08,110.175 C273.892,103.215 267.529,86.71 270.116,81.341 C272.699,75.973 265.54,78.16 264.547,80.148 C263.551,82.137 261.763,102.023 269.319,109.18 C269.319,110.175 266.534,123.5 268.525,131.651 C270.512,139.802 262.56,147.558 260.769,148.951 C258.978,150.342 249.634,158.892 255.001,164.063 C255.001,164.063 259.575,159.093 263.949,154.718 C268.325,150.342 280.229,150.939 281.237,148.553 C282.244,146.166 324.638,192.443 364.815,195.087 C366.976,195.141 431.985,230.78 440.41,236.181 C448.833,241.58 481.239,261.14 488.228,238.773 C493.363,222.353 475.185,212.13 462.591,207.524" fill="#F7CEB9" id="path1146"/>
    <path d="M441.666,108.434 C437.253,116.281 438.174,127.149 432.842,131.974 C427.691,136.635 421.065,153.984 426.74,171.314 C429.228,178.921 425.804,183.692 433.115,186.902 C440.553,190.166 448.346,189.025 454.367,189.734 C460.391,190.442 478.806,191.271 487.667,183.358 C497.586,174.502 505.379,167.772 505.379,167.772 C505.379,167.772 552.673,126.07 502.841,94.714 C471.313,74.877 444.978,102.548 441.666,108.434" fill="#F7CEB9" id="path1148"/>
    <path d="M502.88,155.592 C502.88,155.592 530.169,152.759 513.875,172.951 C500.914,189.009 490.409,175.076 490.409,175.076 z" fill="url(#Gradient_10)" id="path1150"/>
    <path d="M504.782,151.494 C504.782,151.494 494.084,176.123 474.643,181.526 C474.643,181.526 500.462,182.803 510.833,154.367 z" fill="url(#Gradient_11)" id="path1152"/>
    <path d="M485.228,163.039 C485.228,170.302 478.66,176.188 470.56,176.188 C462.46,176.188 455.893,170.302 455.893,163.039 C455.893,155.777 462.46,149.89 470.56,149.89 C478.66,149.89 485.228,155.777 485.228,163.039 z" fill="url(#Gradient_12)" id="path1154"/>
    <path d="M456.008,137.869 C456.008,137.869 451.314,146.759 459.887,149.116 C468.455,151.473 472.363,147.511 472.363,147.511 M434.928,130.004 C434.928,130.004 432.001,138.094 442.503,133.79" fill-opacity="0" stroke="#6C5649" stroke-width="1.728" stroke-linecap="round" stroke-linejoin="round" id="path1156"/>
    <path d="M443.439,138.558 C443.439,138.558 433.738,143.76 432.455,143.974 L435.866,152.159" fill-opacity="0" stroke="#917E70" stroke-width="1.728" stroke-linecap="round" stroke-linejoin="round" id="path1158"/>
    <path d="M434.319,161.456 C434.319,161.456 434.143,174.195 445.853,164.555" fill-opacity="0" stroke="#E36B70" stroke-width="2.592" stroke-linecap="round" stroke-linejoin="round" id="path1160"/>
    <path d="M467.384,122.119 C467.384,122.119 475.51,120.627 475.686,129.203 M438.482,117.63 C438.482,117.63 441.181,112.831 445.47,116.405" fill-opacity="0" stroke="#917E70" stroke-width="1.728" stroke-linecap="round" stroke-linejoin="round" id="path1162"/>
    <path d="M454.977,145.445 C454.977,145.445 452.985,148.107 450.845,146.822 M458.325,148.474 C458.325,148.474 455.657,151.684 453.943,151.47 M462.884,150.513 C462.884,150.513 461.322,153.881 459.45,153.881 M434.41,133.445 C434.41,133.445 430.622,134.652 429.418,132.929 M436.503,135.764 C436.503,135.764 436.548,137.837 432.861,138.266" fill-opacity="0" stroke="#6C5649" stroke-width="1.728" stroke-linecap="round" stroke-linejoin="round" id="path1164"/>
    <path d="M469.358,85.394 C475.925,81.154 471.333,154.437 522.743,160.208 C522.743,160.208 543.661,116.921 507.69,87.572 C486.697,70.445 469.358,85.394 469.358,85.394 z" fill="url(#Gradient_13)" id="path1166"/>
    <path d="M479.037,120.952 C479.732,120.952 498.06,113.527 498.06,113.527 L498.688,115.057 L479.394,122.582 L479.037,120.952" fill="#F1A948" id="path1168"/>
    <path d="M480.542,125.016 C481.236,125.016 499.564,117.591 499.564,117.591 L500.193,119.122 L480.896,126.646 L480.542,125.016" fill="#F1A948" id="path1170"/>
    <path d="M90.192,138.404 C90.194,138.433 90.195,138.461 90.196,138.49" fill-opacity="0" stroke="#F1A948" stroke-width="4.32" stroke-linecap="round" stroke-linejoin="round" id="path1172"/>
    <path d="M85.469,145.148 C84.32,145.639 83.045,145.901 81.74,145.867 C75.646,145.707 69.417,138.318 68.32,132.932 C66.061,121.854 74.204,115.447 84.152,111.269 C91.095,108.351 98.844,107.269 105.194,112.298 C112.414,118.015 115.114,130.154 111.09,138.22 C109.002,142.403 103.289,147.111 102.561,151.886 C101.753,157.181 103.912,165.852 108.178,168.918 C111.892,171.59 119.395,171.665 122.499,176.129" fill-opacity="0" stroke="#F1A948" stroke-width="4.32" stroke-dasharray="0.173,8.667" stroke-linecap="round" stroke-linejoin="round" id="path1174"/>
    <path d="M123.86,180.197 C123.862,180.226 123.864,180.255 123.866,180.284 M214.775,40.146 C214.773,40.175 214.77,40.204 214.768,40.234" fill-opacity="0" stroke="#F1A948" stroke-width="4.32" stroke-linecap="round" stroke-linejoin="round" id="path1176"/>
    <path d="M211.64,48.184 C204.838,56.567 188.628,57.322 177.873,48.982 C171.439,43.988 174.313,26.797 177.908,20.144 C190.473,-3.115 229.747,-3.843 245.593,18.134 C251.863,26.827 253.232,41.672 250.749,51.475 C246.765,67.221 236.04,75.865 221.675,83.545 C212.187,88.618 203.296,92.057 200.02,103.236 C197.69,111.17 201.707,117.062 207.409,123.805 C210.646,127.633 220.206,135.414 218.259,146.463" fill-opacity="0" stroke="#F1A948" stroke-width="4.32" stroke-dasharray="0.173,8.67" stroke-linecap="round" stroke-linejoin="round" id="path1178"/>
    <path d="M217.017,150.613 C217.005,150.64 216.994,150.667 216.983,150.693 M415.49,36.308 C415.483,36.336 415.475,36.364 415.468,36.392" fill-opacity="0" stroke="#F1A948" stroke-width="4.32" stroke-linecap="round" stroke-linejoin="round" id="path1180"/>
    <path d="M408.416,40.373 C404.12,40.326 399.169,38.268 397.363,35.115 C394.493,30.115 395.65,24.354 398.037,20.105 C407.56,3.132 436.058,10.287 437.193,29.443 C437.764,39.128 435.74,47.418 426.904,54.826 C421.192,59.619 414.83,58.271 407.665,59.122 C396.233,60.487 387.202,76.303 390.043,85.854 C390.381,86.994 391.719,96.744 388.934,103.414" fill-opacity="0" stroke="#F1A948" stroke-width="4.32" stroke-dasharray="0.175,8.738" stroke-linecap="round" stroke-linejoin="round" id="path1182"/>
    <path d="M386.609,107.077 C386.588,107.097 386.569,107.118 386.548,107.138" fill-opacity="0" stroke="#F1A948" stroke-width="4.32" stroke-linecap="round" stroke-linejoin="round" id="path1184"/>
    <path d="M7.718,430.992 C7.718,433.821 10.032,436.136 12.861,436.136 L523.703,436.136 C526.533,436.136 528.847,433.821 528.847,430.992 L528.847,250.246 C528.847,247.418 526.533,245.103 523.703,245.103 L12.861,245.103 C10.032,245.103 7.718,247.418 7.718,250.246 L7.718,430.992" fill="#9DD6EA" id="path1186"/>
    <path d="M0,267.751 C0,270.58 2.314,272.894 5.143,272.894 L531.414,272.894 C534.243,272.894 536.558,270.58 536.558,267.751 L536.558,250.246 C536.558,247.418 534.243,245.103 531.414,245.103 L5.143,245.103 C2.314,245.103 0,247.418 0,250.246 L0,267.751" fill="#B9E1ED" id="path1188"/>
    <path d="M81.769,205.552 C81.769,205.552 83.29,205.447 82.292,206.862 C81.298,208.277 77.786,209.743 76.528,210.372 C75.269,211 73.227,211.996 72.336,212.625 C71.444,213.254 69.507,211.736 69.611,208.958 C69.717,206.18 72.178,206.076 81.769,205.552" fill="#DF542F" id="path1190"/>
    <path d="M72.388,201.097 C72.388,201.097 73.595,200.468 74.852,201.726 C76.109,202.983 78.049,203.664 79.934,203.664 C81.821,203.664 83.551,203.875 82.973,205.341 C82.397,206.809 77.21,209.326 71.392,209.169 C65.577,209.009 72.388,201.097 72.388,201.097" fill="#E46B42" id="path1192"/>
    <path d="M73.88,204.201 C74.077,206.117 76.195,212.508 70.473,215.504 C70.473,215.504 80.416,219.045 78.644,229.94 C76.876,240.834 73.061,246.148 55.766,247.098 C38.472,248.052 25.807,246.554 19.951,241.923 C14.095,237.294 8.376,228.85 7.558,221.631 C6.74,214.415 8.647,213.734 14.367,214.823 C20.087,215.914 23.491,217.138 33.978,216.865 C33.978,216.865 27.986,213.053 28.803,204.065 C29.619,195.078 36.702,187.586 51.954,187.586 C67.207,187.586 73.061,196.302 73.88,204.201" fill="#F3B348" id="path1194"/>
    <path d="M70.45,203.716 C70.45,205.684 69.417,207.281 68.144,207.281 C66.87,207.281 65.838,205.684 65.838,203.716 C65.838,201.748 66.87,200.154 68.144,200.154 C69.417,200.154 70.45,201.748 70.45,203.716" fill="#6C5649" id="path1196"/>
    <path d="M45.804,224.86 C47.791,224.722 56.43,222.423 61.19,224.75 C65.95,227.074 65.287,231.06 65.287,232.386 C65.287,233.717 64.29,238.032 58.755,240.467 C53.221,242.901 42.593,244.564 32.631,239.581 C22.669,234.601 21.673,231.722 22.778,230.726 C23.885,229.73 28.866,231.501 28.866,231.501 C28.866,231.501 21.099,229.13 22.115,225.745 C23.11,222.423 30.102,224.587 32.076,225.082 C36.063,226.079 42.593,225.082 45.804,224.86" fill="#EE9A47" id="path1198"/>
  </g>
</svg>
