<?xml version="1.0" encoding="UTF-8" standalone="no"?>
<!--part of the matt icon theme by sixsixfive released under CC0 (https://creativecommons.org/publicdomain/zero/1.0/) on openclipart-->
<svg xmlns="http://www.w3.org/2000/svg" xmlns:xlink="http://www.w3.org/1999/xlink" viewBox="0 0 128 128">
 <defs id="0">
  <linearGradient id="2">
   <stop id="e" stop-color="#ae1010"/>
   <stop id="f" offset="1" stop-color="#e85752"/>
  </linearGradient>
  <linearGradient id="3">
   <stop id="g" stop-color="#eee"/>
   <stop id="h" offset="1" stop-color="#eee" stop-opacity="0"/>
  </linearGradient>
  <linearGradient id="4">
   <stop id="i"/>
   <stop id="j" offset="0.5" stop-color="#fff"/>
   <stop id="k" offset="1"/>
  </linearGradient>
  <linearGradient id="5">
   <stop id="l" stop-color="#a3a3a3"/>
   <stop id="m" offset="1" stop-color="#bbb"/>
  </linearGradient>
  <linearGradient id="6">
   <stop id="n" stop-color="#eee"/>
   <stop id="o" offset="1" stop-color="#e4e4e4"/>
  </linearGradient>
  <linearGradient id="7">
   <stop id="p" stop-color="#eee"/>
   <stop id="q" offset="1" stop-color="#acacac"/>
  </linearGradient>
  <linearGradient id="8">
   <stop id="r"/>
   <stop id="s" offset="1" stop-opacity="0"/>
  </linearGradient>
  <linearGradient id="9">
   <stop id="t" stop-color="#b3925d"/>
   <stop id="u" offset="1" stop-color="#debc85"/>
  </linearGradient>
  <filter x="-0.021" y="-0.892" width="1.041" height="2.784" color-interpolation-filters="sRGB" id="A">
   <feGaussianBlur stdDeviation="0.40655" id="v"/>
  </filter>
  <filter color-interpolation-filters="sRGB" id="B">
   <feGaussianBlur stdDeviation="0.24411" id="w"/>
  </filter>
  <filter color-interpolation-filters="sRGB" id="C">
   <feGaussianBlur stdDeviation="0.21741" id="x"/>
  </filter>
  <linearGradient y1="9.188" x2="0" y2="8.094" id="D" xlink:href="#8" gradientUnits="userSpaceOnUse"/>
  <linearGradient x1="44.75" x2="48.09" id="E" xlink:href="#4" gradientUnits="userSpaceOnUse" gradientTransform="matrix(2.0962418,0,0,2.0962418,-5.9180519,-5.6124707)"/>
  <linearGradient x1="15.719" x2="19.06" id="F" xlink:href="#4" gradientUnits="userSpaceOnUse" gradientTransform="matrix(2.0962418,0,0,2.0962418,-5.9180519,-5.6124707)"/>
  <linearGradient y1="5.531" x2="0" y2="15.196" id="G" xlink:href="#5" gradientUnits="userSpaceOnUse" gradientTransform="matrix(2.0962418,0,0,2.0962418,-5.9180519,-5.6124707)"/>
  <radialGradient cx="14.934" cy="9" r="21.932" id="H" xlink:href="#6" gradientUnits="userSpaceOnUse" gradientTransform="matrix(1.1988598,1.9483695,-1.083409,0.6666372,17.239525,2.7461715)"/>
  <linearGradient x1="9.965" y1="49.2" x2="9.968" y2="53.974" id="I" xlink:href="#7" gradientUnits="userSpaceOnUse" gradientTransform="matrix(2.0933798,0,0,2.0962421,-5.7678984,-5.6082034)"/>
  <radialGradient cx="61.16" cy="-2.173" r="52.41" id="J" xlink:href="#3" gradientUnits="userSpaceOnUse" gradientTransform="matrix(1.7591382,-5.4718982e-4,2.9733044e-4,0.9558755,-46.42668,2.8305453)"/>
  <radialGradient cx="61.04" cy="2.8" r="46.15" id="K" xlink:href="#3" gradientUnits="userSpaceOnUse" gradientTransform="matrix(1.3342148,0.0051496,-0.00364139,0.9434512,-20.389952,3.0941053)"/>
  <linearGradient x1="113.49" y1="13.337" x2="113.56" y2="113.38" id="L" xlink:href="#9" gradientUnits="userSpaceOnUse"/>
  <linearGradient x1="107.03" y1="16.881" x2="107.06" y2="60.25" id="M" xlink:href="#2" gradientUnits="userSpaceOnUse"/>
 </defs>
 <g transform="matrix(1.0974623,0,0,1.0974623,-3.1152809,-2.8093595)" id="1">
  <rect width="49.891" height="47.696" rx="4.065" x="7.08" y="10.171" transform="matrix(2.0962412,0.00151098,-0.00151098,2.0962412,-5.9180519,-5.6124707)" id="N" filter="url(#B)"/>
  <path d="M 11.125,8.09375 C 10.040787,8.0929685 9.0716169,8.5008943 8.34375,9.1875 l 47.28125,0 C 54.904285,8.5317698 53.961881,8.0945111 52.90625,8.09375 l -41.78125,0 z" transform="matrix(2.1786606,0,0,9.713347,-8.62135,-65.440687)" id="O" fill="url(#D)" filter="url(#A)"/>
  <rect width="104.58" height="99.98" rx="8.521" x="8.911" y="15.712" transform="matrix(0.9999997,7.2080413e-4,-7.2080413e-4,0.9999997,0,0)" id="P" fill="#8f6b32"/>
  <rect width="104.58" height="99.98" rx="8.521" x="8.909" y="13.407" transform="matrix(0.9999997,7.2080379e-4,-7.2080379e-4,0.9999997,0,0)" id="Q" fill="url(#L)"/>
  <rect width="43.888" height="43.02" rx="3.576" x="9.965" y="10.923" transform="matrix(2.0962412,0.00154927,-0.00147363,2.0962414,-5.9180519,-5.6124707)" id="R" filter="url(#C)"/>
  <rect width="91.88" height="90.18" rx="7.486" x="15.09" y="17.288" transform="matrix(0.9999997,7.4008061e-4,-7.0202909e-4,0.9999998,0,0)" id="S" fill="url(#I)"/>
  <path d="m 17.4375,15.65625 c -3.521337,0 -6.28125,2.759913 -6.28125,6.28125 l 0,82.9375 c 0,3.52187 2.749171,6.25 6.28125,6.25 l 87.53125,0 c 3.53207,0 6.28125,-2.72813 6.28125,-6.25 l 0,-82.9375 c 0,-3.521335 -2.75992,-6.28125 -6.28125,-6.28125 l -87.53125,0 z" transform="matrix(0.9999997,7.2080379e-4,-7.2080379e-4,0.9999997,0,0)" id="T" fill="none" stroke="url(#J)" stroke-width="2.366"/>
  <rect width="91.91" height="86.68" rx="7.489" x="15.12" y="16.942" transform="matrix(0.9999997,7.2080379e-4,-7.2080379e-4,0.9999997,0,0)" id="U" fill="url(#M)"/>
  <path d="m 15.087524,47.89181 -0.03478,48.250128 c -0.003,4.148692 3.332838,7.489342 7.481546,7.492332 l 76.931531,0.0554 c 4.148709,0.003 7.497909,-3.33283 7.500899,-7.481528 l 0.0348,-48.250128 -91.913979,-0.06625 z" id="V" fill="url(#H)"/>
  <path d="m 35.687409,22.705704 c -4.13e-4,2.859481 -2.319691,5.176753 -5.179172,5.174692 -2.859479,-0.0021 -5.175416,-2.322673 -5.171705,-5.182155 4.13e-4,-2.859481 2.319691,-5.176755 5.179172,-5.174694 2.859479,0.0021 5.175415,2.322675 5.171705,5.182157 z" id="W" fill="#6a0a0a"/>
  <path d="m 22.625,18.34375 c -3.395337,0 -6.09375,2.698412 -6.09375,6.09375 l 0,71.6875 c 0,3.395342 2.698411,6.09375 6.09375,6.09375 l 76.90625,0 c 3.39534,0 6.09375,-2.69842 6.09375,-6.09375 l 0,-71.6875 c 0,-3.395336 -2.69842,-6.09375 -6.09375,-6.09375 l -76.90625,0 z" transform="matrix(0.9999997,7.2080379e-4,-7.2080379e-4,0.9999997,0,0)" id="X" fill="none" stroke="url(#K)" stroke-width="2.731"/>
  <path d="m 96.664486,22.749656 c -4.13e-4,2.859483 -2.319691,5.176755 -5.179172,5.174694 -2.859482,-0.0021 -5.175416,-2.322676 -5.171705,-5.182155 4.13e-4,-2.859483 2.31969,-5.176755 5.179169,-5.174694 2.859482,0.0021 5.175416,2.322673 5.171708,5.182155 z" id="Y" fill="#6a0a0a"/>
  <path d="m 30.504149,5.9823668 c -1.93281,0.026944 -3.498877,1.6701066 -3.4719,3.6029155 l 0,13.1015117 c -0.01869,1.262031 0.679067,2.376348 1.768704,3.013347 1.089635,0.636996 2.446855,0.700933 3.537408,0.06551 1.090553,-0.635426 1.720071,-1.8168 1.703196,-3.078855 l 0,-13.1015117 C 34.056126,8.6393331 33.727427,7.6999359 33.058944,7.0304877 32.390461,6.3610396 31.450118,5.9691636 30.504149,5.9823668 z m 60.85652,0.065507 c -1.93281,0.026945 -3.498877,1.6045989 -3.4719,3.537408 l 0,13.1015112 c -0.01875,1.262065 0.613538,2.441824 1.703196,3.078855 1.089654,0.637033 2.446834,0.63546 3.537408,0 1.090572,-0.63546 1.785636,-1.816765 1.768704,-3.078855 l 0,-13.1015112 C 94.912648,8.6393348 94.518439,7.7654437 93.849956,7.0959952 93.181471,6.426547 92.306636,6.0346728 91.360669,6.0478743 z" id="Z" stroke-width="25.562" fill="url(#G)"/>
  <path d="m 58.959193,85.089011 c -3.1e-5,1.904291 -0.317411,3.620125 -0.95214,5.147509 -0.614954,1.507561 -1.547257,2.796916 -2.796912,3.868071 -1.249711,1.071159 -2.806856,1.894363 -4.671439,2.469614 -1.844794,0.555415 -3.997025,0.833122 -6.456702,0.833123 -2.737418,-1e-6 -5.04834,-0.347135 -6.932772,-1.041404 -1.864617,-0.694268 -3.401925,-1.606735 -4.61193,-2.737404 -1.19018,-1.150498 -2.092729,-2.449772 -2.70765,-3.897824 -0.595089,-1.448039 -0.981896,-2.91592 -1.160421,-4.40365 l 8.509755,-0.743859 c 0.119007,0.892643 0.337206,1.715846 0.654596,2.469614 0.337206,0.73395 0.783521,1.36871 1.338948,1.904281 0.555403,0.535586 1.229835,0.952147 2.023298,1.249684 0.813272,0.277714 1.765412,0.416567 2.856421,0.416561 2.003444,6e-6 3.560588,-0.4959 4.671439,-1.487719 1.110808,-0.991804 1.666223,-2.509277 1.666246,-4.552421 -2.3e-5,-1.249671 -0.267812,-2.251401 -0.803369,-3.005193 -0.515764,-0.753762 -1.180278,-1.329013 -1.993544,-1.725755 -0.793469,-0.416544 -1.656346,-0.694251 -2.588631,-0.833123 -0.932321,-0.138836 -1.815034,-0.208263 -2.648141,-0.20828 l -2.91593,0 0,-6.754246 2.737404,0 c 0.833107,2.4e-5 1.676147,-0.07932 2.529123,-0.238035 0.872777,-0.158665 1.656308,-0.446291 2.350597,-0.862878 0.694248,-0.416535 1.259581,-0.991786 1.696,-1.725754 0.436375,-0.75375 0.654574,-1.705889 0.654596,-2.856421 -2.2e-5,-1.725723 -0.48601,-3.074587 -1.457965,-4.046597 -0.95216,-0.991777 -2.350615,-1.487683 -4.195368,-1.487719 -1.72577,3.6e-5 -3.124224,0.476105 -4.195369,1.42821 -1.051333,0.952174 -1.656338,2.301038 -1.815018,4.046597 l -8.360982,-0.595088 c 0.238032,-1.963756 0.773611,-3.669673 1.606736,-5.117754 0.852955,-1.44801 1.914194,-2.648102 3.18372,-3.600281 1.289348,-0.9521 2.767148,-1.656286 4.433404,-2.112562 1.666232,-0.476028 3.431657,-0.714062 5.29628,-0.714105 2.459677,4.3e-5 4.572237,0.297586 6.337685,0.892632 1.765402,0.595128 3.213448,1.398496 4.34414,2.410105 1.130639,1.011687 1.963761,2.191944 2.499369,3.540772 0.535549,1.3489 0.803338,2.787027 0.803368,4.314386 -3e-5,1.229878 -0.178556,2.38038 -0.535578,3.451509 -0.357083,1.051349 -0.902579,2.003488 -1.636492,2.856421 -0.714133,0.833147 -1.636518,1.55717 -2.767158,2.172071 -1.130691,0.59511 -2.469637,1.041425 -4.016842,1.338947 l 0,0.119018 c 1.725731,0.198383 3.223367,0.595108 4.492912,1.190175 1.269493,0.575271 2.310896,1.299294 3.124211,2.17207 0.813257,0.872813 1.418262,1.864625 1.815018,2.975439 0.396693,1.091008 0.595056,2.251428 0.595087,3.481263 m 6.069896,11.633966 0,-6.218667 10.384281,0 0,-28.593966 -10.056983,6.278175 0,-6.575719 10.503299,-6.813755 7.914667,0 0,35.705265 9.610667,0 0,6.218667 -28.355931,0" id="a" fill="#555"/>
  <path d="m 30.186694,43.618355 0,-7.448602 c -1.1e-5,-0.29654 0.0029,-0.601811 0.0087,-0.915811 0.01162,-0.313984 0.02325,-0.60181 0.03489,-0.86348 0.01743,-0.308168 0.03197,-0.607624 0.04361,-0.898367 -0.122119,0.459369 -0.238413,0.895469 -0.34888,1.308302 -0.04653,0.174449 -0.09595,0.354704 -0.148275,0.540765 -0.05234,0.186078 -0.104675,0.366333 -0.156996,0.540765 -0.04653,0.174448 -0.09305,0.337259 -0.139552,0.488433 -0.04653,0.151188 -0.08723,0.282019 -0.122108,0.39249 l -2.215392,6.855505 -1.831624,0 -2.215392,-6.855505 c -0.03489,-0.110471 -0.07559,-0.241302 -0.122108,-0.39249 -0.04071,-0.151174 -0.08722,-0.313985 -0.139552,-0.488433 -0.04652,-0.174432 -0.09595,-0.354687 -0.148274,-0.540765 -0.05234,-0.186061 -0.104668,-0.366316 -0.156997,-0.540765 -0.116297,-0.412833 -0.238405,-0.848933 -0.366324,-1.308302 0.01744,0.337261 0.03488,0.668697 0.05233,0.994309 0.01163,0.279114 0.02325,0.572755 0.03489,0.880924 0.01163,0.308186 0.01744,0.575661 0.01744,0.802425 l 0,7.448602 -2.285168,0 0,-12.28932 3.445196,0 2.197948,6.872948 c 0.05814,0.18026 0.119194,0.401218 0.183162,0.662873 0.06977,0.261665 0.136638,0.514603 0.200607,0.758816 0.06977,0.284923 0.145359,0.581471 0.226772,0.889645 0.0814,-0.30236 0.159896,-0.593093 0.235495,-0.872201 0.03488,-0.122104 0.06977,-0.24712 0.104664,-0.375047 0.03488,-0.127918 0.06977,-0.252934 0.104664,-0.375047 0.03488,-0.122103 0.06977,-0.238396 0.104664,-0.34888 0.03488,-0.110474 0.06686,-0.209323 0.09594,-0.296549 l 2.16306,-6.916558 3.427752,0 0,12.28932 -2.285168,0 m 13.379572,0 -1.090252,-3.139926 -4.683722,0 -1.090252,3.139926 -2.572995,0 4.483116,-12.28932 3.035262,0 4.465672,12.28932 -2.546829,0 m -2.878265,-8.60863 c -0.06978,-0.203505 -0.139559,-0.407018 -0.209329,-0.610541 -0.06397,-0.209319 -0.122114,-0.398296 -0.17444,-0.566931 -0.04652,-0.17443 -0.08723,-0.31689 -0.122108,-0.427379 -0.02908,-0.110468 -0.04652,-0.171522 -0.05233,-0.183162 -0.0058,0.01746 -0.02327,0.08142 -0.05233,0.191884 -0.02908,0.110489 -0.06978,0.250042 -0.122109,0.418657 -0.04652,0.168635 -0.10467,0.357612 -0.17444,0.566931 -0.06397,0.203523 -0.130836,0.407036 -0.200606,0.610541 l -1.21236,3.532417 3.532416,0 -1.21236,-3.532417 m 7.099721,8.60863 0,-12.28932 2.572995,0 0,12.28932 -2.572995,0" id="b" fill="#eee"/>
  <path d="m 30.504149,5.9823668 c -1.93281,0.026944 -3.498877,1.6701066 -3.4719,3.6029155 l 0,13.1015117 c -0.01869,1.262031 0.679067,2.376348 1.768704,3.013347 1.089635,0.636996 2.446855,0.700933 3.537408,0.06551 1.090553,-0.635426 1.720071,-1.8168 1.703196,-3.078855 l 0,-13.1015117 C 34.056126,8.6393331 33.727427,7.6999359 33.058944,7.0304877 32.390461,6.3610396 31.450118,5.9691636 30.504149,5.9823668 z" id="c" opacity="0.145" stroke-width="25.562" fill="url(#F)"/>
  <path d="m 91.360669,6.0478743 c -1.93281,0.026945 -3.498877,1.6045989 -3.4719,3.537408 l 0,13.1015117 c -0.01875,1.262065 0.613538,2.441824 1.703196,3.078855 1.089654,0.637033 2.446834,0.635459 3.537408,0 1.090572,-0.635461 1.785636,-1.816765 1.768704,-3.078855 l 0,-13.1015117 C 94.912648,8.6393348 94.518439,7.7654437 93.849956,7.0959952 93.181471,6.426547 92.306636,6.0346728 91.360669,6.0478743 z" id="d" opacity="0.145" stroke-width="25.562" fill="url(#E)"/>
 </g>
</svg>
