<?xml version="1.0" encoding="UTF-8" standalone="no"?>
<!-- Generator: Adobe Illustrator 19.2.1, SVG Export Plug-In . SVG Version: 6.00 Build 0)  -->

<svg
   xmlns:dc="http://purl.org/dc/elements/1.1/"
   xmlns:cc="http://creativecommons.org/ns#"
   xmlns:rdf="http://www.w3.org/1999/02/22-rdf-syntax-ns#"
   xmlns:svg="http://www.w3.org/2000/svg"
   xmlns="http://www.w3.org/2000/svg"
   xmlns:sodipodi="http://sodipodi.sourceforge.net/DTD/sodipodi-0.dtd"
   xmlns:inkscape="http://www.inkscape.org/namespaces/inkscape"
   version="1.1"
   id="layer"
   x="0px"
   y="0px"
   viewBox="0 0 236.5 191.2"
   xml:space="preserve"
   sodipodi:docname="hydro-quebec-vector-logo.svg"
   width="236.5"
   height="191.2"
   inkscape:version="0.92.4 (5da689c313, 2019-01-14)"><metadata
   id="metadata43"><rdf:RDF><cc:Work
       rdf:about=""><dc:format>image/svg+xml</dc:format><dc:type
         rdf:resource="http://purl.org/dc/dcmitype/StillImage" /></cc:Work></rdf:RDF></metadata><defs
   id="defs41" /><sodipodi:namedview
   pagecolor="#ffffff"
   bordercolor="#666666"
   borderopacity="1"
   objecttolerance="10"
   gridtolerance="10"
   guidetolerance="10"
   inkscape:pageopacity="0"
   inkscape:pageshadow="2"
   inkscape:window-width="2560"
   inkscape:window-height="1377"
   id="namedview39"
   showgrid="false"
   inkscape:zoom="2.047573"
   inkscape:cx="269.38517"
   inkscape:cy="-29.600537"
   inkscape:window-x="-8"
   inkscape:window-y="-8"
   inkscape:window-maximized="1"
   inkscape:current-layer="g36" />
<style
   type="text/css"
   id="style2">
	.st0{fill:#FF9B00;}
	.st1{fill:#003366;}
</style>
<g
   id="g36"
   transform="translate(-4.2949755,-65.621969)">
	<path
   class="st0"
   d="m 135.59498,212.22197 c -13.8,10.7 -31,16.9 -49.700005,16.9 -45.1,0 -81.5999995,-36.5 -81.5999995,-81.6 0,-45.4 36.4999995,-81.900001 81.5999995,-81.900001 45.100005,0 81.600005,36.500001 81.600005,81.600001 0,18.7 -6.1,35.9 -16.9,49.7 v 0 c 4,3.1 22.7,16.9 24.6,19.3 -0.6,-6.8 -3.1,-28.5 -3.1,-28.5 l 68.4,51.3 0.3,1.5 -50.6,-22.4 4.6,38.7 z m -19.6,-15.3 c -9.5,-7.1 -46.300005,-33.8 -46.300005,-33.8 h 35.900005 c 2.1,1.5 18.1,13.5 26.1,19.6 v 0 c 7.4,-9.8 12,-22.1 12,-35.3 0,-32.2 -25.8,-58.300001 -57.700005,-58.300001 -31.9,0 -57.8,26.200001 -57.8,58.400001 0,32.2 25.8,58.3 57.7,58.3 11,-0.3 21.500005,-3.4 30.100005,-8.9 z"
   id="path4"
   inkscape:connector-curvature="0"
   style="fill:#ff9b00" />
	<g
   id="g34">
		
		<g
   id="g32">
			
			
			
			
			
			
		</g>
	</g>
</g>
</svg>