<?xml version="1.0" encoding="UTF-8"?>
<!DOCTYPE svg PUBLIC "-//W3C//DTD SVG 1.1//EN" "http://www.w3.org/Graphics/SVG/1.1/DTD/svg11.dtd">
<svg version="1.1" xmlns="http://www.w3.org/2000/svg" xmlns:xlink="http://www.w3.org/1999/xlink" x="0" y="0" width="220" height="260" viewBox="0, 0, 220, 260">
  <g id="ƒŒƒCƒ_x201e__x0081__x005b__x0020_1">
    <path d="M208.1,128.111 C208.1,128.111 189.519,160.519 189.087,185.293 C189.087,185.293 109.004,280.644 43.324,246.363 C43.324,246.363 43.756,226.343 34.682,220.149 C25.608,213.956 33.674,219.141 33.674,219.141 C33.674,219.141 104.251,243.483 208.1,128.111 z" fill="#FCE9F1"/>
    <path d="M14.085,187.741 C14.085,187.741 23.592,197.248 24.024,210.067 C24.024,210.067 35.979,241.466 95.465,221.445 C95.465,221.445 171.659,183.852 176.412,153.317 L169.21,127.535 C169.21,127.535 106.267,216.116 13.797,187.597 z" fill="#FCE9F1"/>
    <path d="M88.407,34.777 L88.407,137.761 L172.811,165.128 L210.116,126.815 L210.98,27.575 z" fill="#FCE9F1"/>
    <path d="M8.468,163.688 C-5.503,198.4 36.123,194.943 36.123,194.943 C97.913,198.544 164.745,142.515 164.745,142.515 L164.457,136.177 C164.457,136.177 101.082,193.215 29.641,186.013 C29.641,186.013 2.274,183.276 8.468,163.688 z" fill="#EED5E1"/>
    <path d="M82.646,116.156 C84.374,115.724 32.666,118.749 8.324,163.544 C8.324,163.544 -14.145,198.976 62.913,184.573 C62.913,184.573 115.918,179.531 164.313,136.033 C164.313,136.033 103.099,120.621 82.502,116.012 z" fill="#FDF3F7"/>
    <g>
      <path d="M87.975,29.015 L177.996,42.843 L210.836,22.678 L135.218,10.579 z" fill="#FEFEFE"/>
      <path d="M87.975,29.015 L177.996,42.843 L210.836,22.678 L135.218,10.579 z" fill-opacity="0" stroke="#373435" stroke-width="3.042" stroke-linejoin="round"/>
    </g>
    <g>
      <path d="M81.205,21.67 L80.773,34.201 L172.091,49.9 C172.091,49.9 180.013,51.485 186.062,47.308 L213.717,25.847 L213.717,14.756 L182.75,34.489 C182.75,34.489 177.852,37.946 169.498,36.793 L81.205,21.67 z" fill="#FCE9F1"/>
      <path d="M81.205,21.67 L80.773,34.201 L172.091,49.9 C172.091,49.9 180.013,51.485 186.062,47.308 L213.717,25.847 L213.717,14.756 L182.75,34.489 C182.75,34.489 177.852,37.946 169.498,36.793 L81.205,21.67 z" fill-opacity="0" stroke="#373435" stroke-width="3.042" stroke-linejoin="round"/>
    </g>
    <g>
      <path d="M213.717,14.612 L182.75,34.345 C182.75,34.345 177.852,37.802 169.498,36.649 L81.205,21.526 L124.992,3.089 L213.717,14.468 z" fill="#FCE9F1"/>
      <path d="M213.717,14.612 L182.75,34.345 C182.75,34.345 177.852,37.802 169.498,36.649 L81.205,21.526 L124.992,3.089 L213.717,14.468 z" fill-opacity="0" stroke="#373435" stroke-width="3.042" stroke-linejoin="round"/>
    </g>
    <path d="M153.078,184.717 C172.955,167.865 192.832,144.387 192.832,144.387" fill-opacity="0" stroke="#373435" stroke-width="1.43" stroke-linecap="round" stroke-linejoin="round"/>
    <path d="M61.329,229.511 C61.329,229.511 75.012,231.096 98.778,221.013" fill-opacity="0" stroke="#373435" stroke-width="1.43" stroke-linecap="round" stroke-linejoin="round"/>
    <g>
      <g>
        <path d="M198.161,67.185 L204.931,50.333 L198.017,48.316 L198.017,48.316 C197.153,47.884 196.001,48.028 194.56,48.892 C191.248,50.765 187.359,55.23 187.359,59.695 C187.359,61.999 188.079,63.584 189.375,64.16 L189.375,64.16 L189.807,64.304 C189.807,64.304 189.951,64.304 189.951,64.304 L198.017,67.185 z" fill="#F1F2F2"/>
        <path d="M198.161,67.185 L204.931,50.333 L198.017,48.316 L198.017,48.316 C197.153,47.884 196.001,48.028 194.56,48.892 C191.248,50.765 187.359,55.23 187.359,59.695 C187.359,61.999 188.079,63.584 189.375,64.16 L189.375,64.16 L189.807,64.304 C189.807,64.304 189.951,64.304 189.951,64.304 L198.017,67.185 z" fill-opacity="0" stroke="#373435" stroke-width="1.394" stroke-linejoin="round"/>
      </g>
      <g>
        <path d="M207.523,55.374 C207.523,59.695 204.931,64.88 201.618,66.752 C198.305,68.625 195.713,66.608 195.713,62.287 C195.713,57.966 198.305,52.781 201.618,50.909 C204.931,49.036 207.523,51.053 207.523,55.374 z" fill="#F1F2F2"/>
        <path d="M207.523,55.374 C207.523,59.695 204.931,64.88 201.618,66.752 C198.305,68.625 195.713,66.608 195.713,62.287 C195.713,57.966 198.305,52.781 201.618,50.909 C204.931,49.036 207.523,51.053 207.523,55.374 z" fill-opacity="0" stroke="#373435" stroke-width="1.394" stroke-linejoin="round"/>
      </g>
      <g>
        <path d="M193.264,78.419 L184.478,75.25 L189.375,64.016 L198.161,67.185 z" fill="#F1F2F2"/>
        <path d="M193.264,78.419 L184.478,75.25 L189.375,64.016 L198.161,67.185 z" fill-opacity="0" stroke="#373435" stroke-width="1.394" stroke-linejoin="round"/>
      </g>
      <g>
        <path d="M195.713,78.563 L193.264,78.419 L198.161,67.185 L200.61,67.473 z" fill="#F1F2F2"/>
        <path d="M195.713,78.563 L193.264,78.419 L198.161,67.185 L200.61,67.473 z" fill-opacity="0" stroke="#373435" stroke-width="1.394" stroke-linejoin="round"/>
      </g>
    </g>
    <path d="M147.749,190.19 C147.749,190.19 119.086,213.812 106.987,218.133" fill-opacity="0" stroke="#373435" stroke-width="1.43" stroke-linecap="round" stroke-linejoin="round"/>
    <path d="M42.028,226.199 C42.028,226.199 43.612,228.647 55.999,229.079" fill-opacity="0" stroke="#BEBFC1" stroke-width="1.43" stroke-linecap="round" stroke-linejoin="round"/>
    <path d="M82.646,116.156 C84.374,115.724 32.666,118.749 8.324,163.544 C8.324,163.544 1.842,174.922 6.595,181.548 C6.595,181.548 11.061,194.223 36.699,194.223 C36.699,194.223 92.008,200.128 164.601,142.515" fill-opacity="0" stroke="#373435" stroke-width="1.43" stroke-linecap="round" stroke-linejoin="round"/>
    <path d="M164.745,142.515 L165.177,138.338 L82.646,116.156" fill-opacity="0" stroke="#373435" stroke-width="1.43" stroke-linecap="round" stroke-linejoin="round"/>
    <path d="M12.501,184.429 C12.501,184.429 23.88,193.791 67.09,184.429" fill-opacity="0" stroke="#373435" stroke-width="1.43" stroke-linecap="round" stroke-linejoin="round"/>
    <path d="M78.037,182.556 C78.037,182.556 116.062,174.346 159.848,139.49" fill-opacity="0" stroke="#373435" stroke-width="1.43" stroke-linecap="round" stroke-linejoin="round"/>
    <g>
      <path d="M81.349,123.214 C81.349,123.214 36.987,132.432 21.719,159.367 C21.719,159.367 4.867,182.124 61.329,174.346 C61.329,174.346 105.403,169.305 142.132,139.346 C142.132,139.346 97.481,126.527 81.349,123.214 z" fill="#D0BBC6"/>
      <path d="M81.349,123.214 C81.349,123.214 36.987,132.432 21.719,159.367 C21.719,159.367 4.867,182.124 61.329,174.346 C61.329,174.346 105.403,169.305 142.132,139.346 C142.132,139.346 97.481,126.527 81.349,123.214 z" fill-opacity="0" stroke="#373435" stroke-width="1.43"/>
    </g>
    <g>
      <path d="M23.159,170.889 C36.843,139.922 81.349,129.119 81.349,129.119 L81.349,123.214 C81.349,123.214 42.892,130.416 24.024,155.19 C24.024,155.19 15.526,165.128 23.159,170.889 z" fill="#EED5E1"/>
      <path d="M23.159,170.889 C36.843,139.922 81.349,129.119 81.349,129.119 L81.349,123.214 C81.349,123.214 42.892,130.416 24.024,155.19 C24.024,155.19 15.526,165.128 23.159,170.889 z" fill-opacity="0" stroke="#373435" stroke-width="1.43" stroke-linejoin="round"/>
    </g>
    <g>
      <path d="M81.349,123.214 L142.132,139.346 L135.65,143.379 L81.349,129.119 z" fill="#EED5E1"/>
      <path d="M81.349,123.214 L142.132,139.346 L135.65,143.379 L81.349,129.119 z" fill-opacity="0" stroke="#373435" stroke-width="1.43" stroke-linejoin="round"/>
    </g>
    <path d="M186.062,47.164 L210.836,28.583 L210.116,126.815" fill-opacity="0" stroke="#373435" stroke-width="3.042" stroke-linecap="round" stroke-linejoin="round"/>
    <path d="M210.116,126.815 C210.116,126.815 193.552,142.37 189.519,182.988 C109.148,280.788 52.975,252.557 52.975,252.557 C52.975,252.557 42.604,249.82 41.884,238.297 C41.164,226.919 38.715,224.038 31.225,218.565 C26.04,214.82 22.295,201.281 22.295,201.281 C22.295,201.281 22.583,202.145 18.406,191.918 C18.406,191.918 4.435,185.725 5.155,175.786 C4.435,171.754 5.587,158.07 36.987,133.584 C36.987,133.584 60.32,119.469 82.646,116.156 C82.646,116.156 76.452,91.526 87.543,49.612" fill-opacity="0" stroke="#373435" stroke-width="3.042" stroke-linecap="round" stroke-linejoin="round"/>
    <path d="M87.687,49.612 L88.119,35.785 L173.099,49.324" fill-opacity="0" stroke="#373435" stroke-width="3.042" stroke-linecap="round" stroke-linejoin="round"/>
    <path d="M173.099,49.324 C173.099,49.324 179.581,52.205 185.918,47.308" fill-opacity="0" stroke="#373435" stroke-width="3.042" stroke-linecap="round" stroke-linejoin="round"/>
    <g>
      <path d="M82.646,116.156 C82.646,116.156 73.571,70.641 100.362,23.398 C100.362,23.398 130.177,-19.524 157.976,23.398 C157.976,23.398 189.231,66.032 165.177,138.338 C165.177,138.338 100.218,120.045 82.646,116.156 z" fill="#FDF3F7"/>
      <path d="M82.646,116.156 C82.646,116.156 73.571,70.641 100.362,23.398 C100.362,23.398 130.177,-19.524 157.976,23.398 C157.976,23.398 189.231,66.032 165.177,138.338 C165.177,138.338 100.218,120.045 82.646,116.156 z" fill-opacity="0" stroke="#373435" stroke-width="3.042" stroke-linejoin="round"/>
    </g>
    <g>
      <path d="M111.885,215.684 L114.189,206.898 L116.638,215.684 L125.424,217.989 L116.638,220.293 L114.189,229.079 L111.885,220.293 L103.099,217.989 z" fill="#FFF212"/>
      <path d="M111.885,215.684 L114.189,206.898 L116.638,215.684 L125.424,217.989 L116.638,220.293 L114.189,229.079 L111.885,220.293 L103.099,217.989 z" fill-opacity="0" stroke="#FEFEFE" stroke-width="1.394"/>
    </g>
    <g>
      <path d="M29.929,128.975 L34.25,113.132 L38.427,128.975 L54.271,133.152 L38.427,137.473 L34.25,153.173 L29.929,137.473 L14.085,133.152 z" fill="#FFF212"/>
      <path d="M29.929,128.975 L34.25,113.132 L38.427,128.975 L54.271,133.152 L38.427,137.473 L34.25,153.173 L29.929,137.473 L14.085,133.152 z" fill-opacity="0" stroke="#FEFEFE" stroke-width="2.506"/>
    </g>
    <g>
      <path d="M184.478,162.103 L186.927,153.317 L189.231,162.103 L198.017,164.408 L189.231,166.712 L186.927,175.498 L184.478,166.712 L175.692,164.408 z" fill="#FFF212"/>
      <path d="M184.478,162.103 L186.927,153.317 L189.231,162.103 L198.017,164.408 L189.231,166.712 L186.927,175.498 L184.478,166.712 L175.692,164.408 z" fill-opacity="0" stroke="#FEFEFE" stroke-width="1.394"/>
    </g>
  </g>
</svg>
